<mxfile host="app.diagrams.net" modified="2023-11-23T10:19:49.950Z" agent="Mozilla/5.0 (Macintosh; Intel Mac OS X 10_15_7) AppleWebKit/605.1.15 (KHTML, like Gecko) Version/16.5 Safari/605.1.15" version="22.1.3" etag="nUq03z-rYY1q68FZsbzo" type="github">
  <diagram name="第 1 页" id="LyoCSj3I1t1MJed4Nzad">
    <mxGraphModel>
      <root>
        <mxCell id="0" />
        <mxCell id="1" parent="0" />
      </root>
    </mxGraphModel>
  </diagram>
</mxfile>
